<svg width="40" height="40" viewBox="0 0 40 40" fill="none" xmlns="http://www.w3.org/2000/svg">
<path d="M0.138801 16.0028C0.0475234 16.2122 0.000278457 16.4382 0 16.6667M0.138801 16.0028L39.3294 15.332C39.3688 15.3618 39.4068 15.3933 39.4434 15.4264L39.4694 15.446M0.138801 16.0028C0.230078 15.7934 0.363438 15.6049 0.530599 15.4492V15.446M0.138801 16.0028L0.635604 15.446M0 16.6667C0 17.1087 0.175595 17.5326 0.488155 17.8452C0.800716 18.1577 1.22464 18.3333 1.66667 18.3333H2.33333H3.33333V19.3333V36.6667C3.33333 38.5083 4.825 40 6.66667 40H33.3333C35.175 40 36.6667 38.5083 36.6667 36.6667V19.3333V18.3333H37.6667H38.3333C38.7754 18.3333 39.1993 18.1577 39.5118 17.8452C39.8244 17.5326 40 17.1087 40 16.6667C40.0002 16.4377 39.9531 16.2111 39.8618 16.001C39.7706 15.791 39.637 15.6021 39.4694 15.446M0 16.6667L0.999999 16.6679C1 16.6677 1 16.6675 1 16.6673M0 16.6667H1C1 16.6669 1 16.6671 1 16.6673M39.4694 15.446L39.2606 15.6701L38.7878 16.1777C38.7979 16.1871 38.8076 16.1968 38.8171 16.2067M39.4694 15.446L38.8694 16.2459L38.8433 16.2264L38.8171 16.2067M38.8171 16.2067L38.8062 16.1986L38.7718 16.1674C38.7572 16.1541 38.7419 16.1415 38.7262 16.1296L38.7111 16.1182L38.6963 16.1061L36.0336 13.9284L35.6667 13.6283V13.1543V6.66667C35.6667 6.29895 35.3677 6 35 6H33.3333C32.9656 6 32.6667 6.29895 32.6667 6.66667V9.06575V11.1758L31.0335 9.83977L20.4964 1.21997L20.4719 1.19993L20.4487 1.17838C20.3263 1.06458 20.1656 1.00092 19.9985 1M38.8171 16.2067C38.8705 16.263 38.9137 16.3283 38.9447 16.3997C38.9813 16.4837 39.0001 16.5743 39 16.6659V16.6667C39 16.8435 38.9298 17.013 38.8047 17.1381C38.6797 17.2631 38.5101 17.3333 38.3333 17.3333H36.6667H35.6667V18.3333V36.6667C35.6667 37.956 34.6227 39 33.3333 39H6.66667C5.37729 39 4.33333 37.956 4.33333 36.6667V18.3333V17.3333H3.33333H1.66667C1.48986 17.3333 1.32029 17.2631 1.19526 17.1381C1.07038 17.0132 1.00016 16.8439 1 16.6673M19.9985 1C19.8248 1.00042 19.6581 1.06862 19.5339 1.19011L19.5021 1.22118L19.4677 1.24932L1.28741 16.1191L1.27157 16.1321L1.25521 16.1444C1.24761 16.1501 1.24014 16.1559 1.23281 16.162M19.9985 1C19.998 0.999999 19.9974 0.999997 19.9969 0.999995L20 0L20.0001 1C19.9995 1 19.999 1 19.9985 1ZM1 16.6673C1.00019 16.5761 1.01909 16.4859 1.05552 16.4023C1.09203 16.3186 1.14537 16.2432 1.21224 16.1809L1.23028 16.1641M1.23028 16.1641L1.23281 16.162M1.23028 16.1641L1.2114 16.18L1.17473 16.2109L0.559133 15.4798L0.53334 15.4492L0.530599 15.446M1.23028 16.1641L1.23049 16.1639C1.23056 16.1638 1.23063 16.1638 1.2307 16.1637M1.23281 16.162C1.2321 16.1625 1.2314 16.1631 1.2307 16.1637M1.23281 16.162L1.23658 16.1588L1.23632 16.1585L1.25367 16.1423L1.28358 16.1144L1.5306 15.8843V15.4492V15.446H0.736833H0.73016H0.636307L0.592448 15.3939M1.2307 16.1637L0.654297 15.3451C0.633299 15.3608 0.612677 15.3771 0.592448 15.3939M1.2307 16.1637L0.635604 15.446M0.592448 15.3939L0.635604 15.446M0.592448 15.3939L0.530599 15.446M0.635604 15.446H0.530599M25 20.6667H24V21.6667V35V36H25H31.6667H32.6667V35V21.6667V20.6667H31.6667H25Z" fill="#13AAFF" fill-opacity="0.65" stroke="#13AAFF" stroke-width="2"/>
</svg>
