<svg width="40" height="40" viewBox="0 0 40 40" fill="none" xmlns="http://www.w3.org/2000/svg">
<path d="M20 0C19.5644 2.83888e-05 19.146 0.170625 18.8346 0.47526L0.654297 15.3451C0.633299 15.3608 0.612677 15.3771 0.592448 15.3939L0.530599 15.446V15.4492C0.363438 15.6049 0.230078 15.7934 0.138801 16.0028C0.0475234 16.2122 0.000278457 16.4382 0 16.6667C0 17.1087 0.175595 17.5326 0.488155 17.8452C0.800716 18.1577 1.22464 18.3333 1.66667 18.3333H3.33333V36.6667C3.33333 38.5083 4.825 40 6.66667 40H33.3333C35.175 40 36.6667 38.5083 36.6667 36.6667V18.3333H38.3333C38.7754 18.3333 39.1993 18.1577 39.5118 17.8452C39.8244 17.5326 40 17.1087 40 16.6667C40.0002 16.4377 39.9531 16.2111 39.8618 16.001C39.7706 15.791 39.637 15.6021 39.4694 15.446L39.4434 15.4264C39.4068 15.3933 39.3688 15.3618 39.3294 15.332L36.6667 13.1543V6.66667C36.6667 5.74667 35.92 5 35 5H33.3333C32.4133 5 31.6667 5.74667 31.6667 6.66667V9.06575L21.1296 0.445964C20.8225 0.160544 20.4192 0.00130889 20 0ZM25 21.6667H31.6667V35H25V21.6667Z" fill="#13AAFF" fill-opacity="0.65"/>
</svg>
