<svg width="40" height="40" viewBox="0 0 40 40" fill="none" xmlns="http://www.w3.org/2000/svg">
<path d="M25 26.665V23.3317C25.75 22.96 27.895 20.4067 28.12 18.4117C28.71 18.3667 29.6367 17.825 29.91 15.6867C30.0567 14.5383 29.4733 13.8933 29.12 13.69C29.12 13.69 30 12.0183 30 10C30 5.95333 28.4117 2.5 25 2.5C25 2.5 23.815 0 20 0C12.93 0 10 4.535 10 10C10 11.84 10.88 13.69 10.88 13.69C10.5267 13.8933 9.94333 14.54 10.09 15.6867C10.3633 17.825 11.29 18.3667 11.88 18.4117C12.105 20.4067 14.25 22.96 15 23.3317V26.665C13.3333 31.665 0 28.3317 0 39.9983H40C40 28.3317 26.6667 31.665 25 26.665Z" fill="#13AAFF" fill-opacity="0.65"/>
</svg>
